<svg version="1.2" xmlns="http://www.w3.org/2000/svg" viewBox="0 0 1200 900" width="1200" height="900">
	<title>4102879_971-ai</title>
	<defs>
		<radialGradient id="g1" cx="0" cy="0" r="1" gradientUnits="userSpaceOnUse" gradientTransform="matrix(619.728,0,0,619.728,598.267,64)">
			<stop offset="0" stop-color="#e39a65"/>
			<stop offset=".474" stop-color="#a92ffb"/>
			<stop offset=".742" stop-color="#6507fa"/>
			<stop offset=".802" stop-color="#0d0c6f"/>
		</radialGradient>
		<radialGradient id="g2" cx="0" cy="0" r="1" gradientUnits="userSpaceOnUse" gradientTransform="matrix(677.668,0,0,677.668,219.227,561.688)">
			<stop offset="0" stop-color="#e39a65"/>
			<stop offset=".474" stop-color="#a92ffb"/>
			<stop offset=".683" stop-color="#6507fa"/>
			<stop offset=".738" stop-color="#0d0c6f"/>
		</radialGradient>
		<radialGradient id="g3" cx="0" cy="0" r="1" gradientUnits="userSpaceOnUse" gradientTransform="matrix(607.692,0,0,607.692,281.556,425.669)">
			<stop offset="0" stop-color="#e39a65"/>
			<stop offset=".474" stop-color="#a92ffb"/>
			<stop offset=".726" stop-color="#6507fa"/>
			<stop offset="1" stop-color="#3919bb"/>
		</radialGradient>
		<radialGradient id="g4" cx="0" cy="0" r="1" gradientUnits="userSpaceOnUse" gradientTransform="matrix(619.851,0,0,619.851,432.945,193.271)">
			<stop offset="0" stop-color="#e39a65"/>
			<stop offset=".474" stop-color="#a92ffb"/>
			<stop offset=".726" stop-color="#6507fa"/>
			<stop offset="1" stop-color="#3919bb"/>
		</radialGradient>
		<linearGradient id="g5" x2="1" gradientUnits="userSpaceOnUse" gradientTransform="matrix(496.696,0,0,532.197,501.074,89.884)">
			<stop offset="0" stop-color="#3919bb"/>
			<stop offset="1" stop-color="#6507fa"/>
		</linearGradient>
		<radialGradient id="g6" cx="0" cy="0" r="1" gradientUnits="userSpaceOnUse" gradientTransform="matrix(854.192,449.841,-449.841,854.192,206.665,60.905)">
			<stop offset="0" stop-color="#e39a65"/>
			<stop offset=".474" stop-color="#a92ffb"/>
			<stop offset=".726" stop-color="#6507fa"/>
			<stop offset="1" stop-color="#3919bb"/>
		</radialGradient>
	</defs>
	<style>
		.s0 { opacity: .6;fill: #020230 } 
		.s1 { fill: url(#g1) } 
		.s2 { fill: url(#g2) } 
		.s3 { fill: url(#g3) } 
		.s4 { fill: #ffffff } 
		.s5 { fill: #06033e } 
		.s6 { fill: url(#g4) } 
		.s7 { fill: url(#g5) } 
		.s8 { opacity: .4;fill: #06033e } 
		.s9 { opacity: .5;fill: #06033e } 
		.s10 { fill: url(#g6) } 
		.s11 { fill: #e8975b } 
		.s12 { fill: #f8359e } 
	</style>
	<g id="321353356351 1">
		<g id="&lt;Group&gt;">
		</g>
		<g id="&lt;Group&gt;">
			<path id="&lt;Path&gt;" class="s0" d="m616.8 859.6l-400.9-231.4c-5.8-3.4-5.1-9.3 1.7-13.2l257.2-148.5c6.8-3.9 17-4.3 22.8-0.9l400.9 231.4c5.8 3.4 5.1 9.3-1.6 13.1l-257.3 148.6c-6.8 3.9-17 4.3-22.8 0.9z"/>
			<path id="&lt;Path&gt;" class="s1" d="m1005 309l-399.3-230.5c-2.7-1.6-5.6-1.9-8.1-1.2q-0.1 0-0.1 0l-7.4 2.6 2.6 0.6c-1 1.2-1.9 2.8-2.4 4.6l-90.3 293.1c-2.2 7.3 1 16.1 7.3 19.8l399.3 230.5q1.4 0.8 2.9 1.2l-1 2.1 7.1-2.4c2.9-1.2 5.3-3.8 6.4-7.5l90.3-293.2c2.2-7.3-1-16.1-7.3-19.7z"/>
			<path id="&lt;Path&gt;" class="s2" d="m892.3 639.4l0.1 0.2-394.3-227.7c-5.8-3.3-16-2.9-22.7 0.9l-254.8 147.2-8.5-3.3 2.4 11.9c0.3 1.8 1.6 3.5 3.9 4.8l398 229.8c5.8 3.3 15.9 2.9 22.6-0.9l255.5-147.5c3.1-1.8 4.9-4.1 5.4-6.3l2.4-11.6z"/>
			<path id="&lt;Path&gt;" class="s3" d="m616.8 792.7l-400.9-231.4c-5.8-3.4-5.1-9.3 1.7-13.2l257.2-148.5c6.8-3.9 17-4.3 22.8-1l400.9 231.5c5.8 3.3 5.1 9.2-1.6 13.1l-257.3 148.6c-6.8 3.9-17 4.3-22.8 0.9z"/>
			<path id="&lt;Path&gt;" class="s4" d="m896.9 640.1l-257.3 148.5c-6.8 3.9-17 4.4-22.8 1l-400.9-231.4c-1.9-1.2-3.1-2.6-3.6-4.2-0.8 2.7 0.4 5.4 3.6 7.3l400.9 231.4c5.8 3.4 16 3 22.8-0.9l257.3-148.6c4.4-2.5 6.2-6 5.2-9-0.6 2.1-2.3 4.2-5.2 5.9z"/>
			<g id="&lt;Group&gt;" style="opacity: .4">
				<path id="&lt;Path&gt;" class="s5" d="m407.1 523.7l-13.5-7.8c-1.1-0.6-0.9-1.7 0.3-2.4l16-9.3c1.2-0.7 3.1-0.8 4.2-0.1l13.6 7.8c1 0.6 0.9 1.7-0.3 2.4l-16 9.2c-1.3 0.8-3.2 0.9-4.3 0.2z"/>
				<path id="&lt;Path&gt;" class="s5" d="m428 535.8l-13.5-7.8c-1.1-0.7-0.9-1.7 0.3-2.5l16-9.2c1.2-0.7 3.1-0.8 4.2-0.2l13.6 7.8c1 0.7 0.9 1.8-0.3 2.5l-16 9.2c-1.3 0.7-3.2 0.8-4.3 0.2z"/>
				<path id="&lt;Path&gt;" class="s5" d="m448.9 547.9l-13.5-7.9c-1.1-0.6-0.9-1.7 0.3-2.4l16-9.2c1.2-0.8 3.1-0.8 4.2-0.2l13.6 7.8c1 0.6 0.9 1.7-0.3 2.5l-16 9.2c-1.3 0.7-3.2 0.8-4.3 0.2z"/>
				<path id="&lt;Path&gt;" class="s5" d="m477.8 537.9l-13.5-7.8c-1.1-0.6-0.9-1.7 0.3-2.5l13.4-7.7c1.3-0.7 3.2-0.8 4.3-0.2l13.5 7.8c1.1 0.7 0.9 1.7-0.3 2.5l-13.4 7.7c-1.3 0.7-3.2 0.8-4.3 0.2z"/>
				<path id="&lt;Path&gt;" class="s5" d="m498.7 550l-13.5-7.9c-1.1-0.6-0.9-1.7 0.3-2.4l13.4-7.7c1.3-0.8 3.2-0.8 4.3-0.2l13.5 7.8c1.1 0.6 0.9 1.7-0.3 2.4l-13.4 7.8c-1.3 0.7-3.2 0.8-4.3 0.2z"/>
				<path id="&lt;Path&gt;" class="s5" d="m519.6 562l-13.5-7.8c-1.1-0.6-0.9-1.7 0.3-2.4l13.4-7.8c1.3-0.7 3.2-0.8 4.3-0.2l13.5 7.9c1.1 0.6 0.9 1.7-0.3 2.4l-13.4 7.7c-1.3 0.8-3.2 0.9-4.3 0.2z"/>
				<path id="&lt;Path&gt;" class="s5" d="m540.5 574.1l-13.5-7.8c-1.1-0.7-0.9-1.7 0.3-2.5l13.4-7.7c1.3-0.7 3.2-0.8 4.3-0.2l13.5 7.8c1.1 0.7 0.9 1.7-0.3 2.5l-13.4 7.7c-1.3 0.7-3.2 0.8-4.3 0.2z"/>
				<path id="&lt;Path&gt;" class="s5" d="m561.4 586.2l-13.5-7.9c-1.1-0.6-0.9-1.7 0.3-2.4l13.4-7.7c1.3-0.8 3.2-0.8 4.3-0.2l13.5 7.8c1.1 0.6 0.9 1.7-0.3 2.4l-13.4 7.8c-1.3 0.7-3.2 0.8-4.3 0.2z"/>
				<path id="&lt;Path&gt;" class="s5" d="m582.3 598.2l-13.5-7.8c-1.1-0.6-0.9-1.7 0.3-2.4l13.4-7.8c1.3-0.7 3.2-0.8 4.3-0.2l13.5 7.9c1.1 0.6 0.9 1.7-0.3 2.4l-13.4 7.7c-1.3 0.8-3.2 0.8-4.3 0.2z"/>
				<path id="&lt;Path&gt;" class="s5" d="m603.2 610.3l-13.5-7.8c-1.1-0.7-0.9-1.7 0.3-2.5l13.4-7.7c1.3-0.7 3.2-0.8 4.3-0.2l13.5 7.8c1.1 0.7 0.9 1.7-0.3 2.5l-13.4 7.7c-1.3 0.7-3.2 0.8-4.3 0.2z"/>
				<path id="&lt;Path&gt;" class="s5" d="m624.1 622.4l-13.5-7.9c-1.1-0.6-0.9-1.7 0.3-2.4l13.4-7.7c1.3-0.8 3.2-0.9 4.3-0.2l13.5 7.8c1.1 0.6 0.9 1.7-0.3 2.4l-13.4 7.8c-1.3 0.7-3.2 0.8-4.3 0.2z"/>
				<path id="&lt;Path&gt;" class="s5" d="m645 634.4l-13.5-7.8c-1.1-0.6-0.9-1.7 0.3-2.4l13.4-7.8c1.3-0.7 3.2-0.8 4.3-0.2l13.5 7.9c1.1 0.6 0.9 1.7-0.3 2.4l-13.4 7.7c-1.3 0.8-3.2 0.8-4.3 0.2z"/>
				<path id="&lt;Path&gt;" class="s5" d="m665.9 646.5l-13.5-7.8c-1.1-0.7-0.9-1.7 0.3-2.5l13.4-7.7c1.3-0.7 3.2-0.8 4.3-0.2l13.5 7.8c1.1 0.6 0.9 1.7-0.3 2.5l-13.4 7.7c-1.3 0.7-3.2 0.8-4.3 0.2z"/>
				<path id="&lt;Path&gt;" class="s5" d="m508.6 532.2l-13.5-7.8c-1.1-0.7-0.9-1.8 0.3-2.5l13.4-7.7c1.3-0.7 3.2-0.8 4.3-0.2l13.5 7.8c1.1 0.6 0.9 1.7-0.3 2.5l-13.4 7.7c-1.3 0.7-3.2 0.8-4.3 0.2z"/>
				<path id="&lt;Path&gt;" class="s5" d="m487.4 519.9l-13.5-7.8c-1.1-0.6-1-1.7 0.3-2.4l13.4-7.8c1.3-0.7 3.2-0.8 4.2-0.1l13.6 7.8c1.1 0.6 0.9 1.7-0.3 2.4l-13.4 7.8c-1.3 0.7-3.2 0.8-4.3 0.1z"/>
				<path id="&lt;Path&gt;" class="s5" d="m466.2 507.7l-29.2-16.9c-1.1-0.6-0.9-1.7 0.3-2.4l13.4-7.8c1.3-0.7 3.2-0.8 4.3-0.1l29.1 16.8c1.1 0.6 1 1.7-0.3 2.4l-13.4 7.8c-1.2 0.7-3.1 0.8-4.2 0.2z"/>
				<path id="&lt;Path&gt;" class="s5" d="m481 492.7l-23.6-13.6c-1.1-0.6-1-1.7 0.3-2.5l13.4-7.7c1.2-0.7 3.1-0.8 4.2-0.2l23.7 13.7c1.1 0.6 0.9 1.7-0.3 2.4l-13.4 7.8c-1.3 0.7-3.2 0.8-4.3 0.1z"/>
				<path id="&lt;Path&gt;" class="s5" d="m529.5 544.2l-13.5-7.8c-1.1-0.6-0.9-1.7 0.3-2.4l13.4-7.8c1.3-0.7 3.2-0.8 4.3-0.1l13.5 7.8c1.1 0.6 0.9 1.7-0.3 2.4l-13.4 7.8c-1.3 0.7-3.2 0.8-4.3 0.1z"/>
				<path id="&lt;Path&gt;" class="s5" d="m550.4 556.3l-13.5-7.8c-1.1-0.6-0.9-1.7 0.3-2.4l13.4-7.8c1.3-0.7 3.2-0.8 4.3-0.2l13.5 7.8c1.1 0.7 0.9 1.8-0.3 2.5l-13.4 7.7c-1.3 0.8-3.2 0.8-4.3 0.2z"/>
				<path id="&lt;Path&gt;" class="s5" d="m571.3 568.4l-13.5-7.8c-1.1-0.7-0.9-1.8 0.3-2.5l13.4-7.7c1.3-0.8 3.2-0.8 4.3-0.2l13.5 7.8c1.1 0.6 0.9 1.7-0.3 2.5l-13.4 7.7c-1.3 0.7-3.2 0.8-4.3 0.2z"/>
				<path id="&lt;Path&gt;" class="s5" d="m592.2 580.4l-13.5-7.8c-1.1-0.6-0.9-1.7 0.3-2.4l13.4-7.8c1.3-0.7 3.2-0.8 4.3-0.1l13.5 7.8c1.1 0.6 0.9 1.7-0.3 2.4l-13.4 7.8c-1.3 0.7-3.2 0.8-4.3 0.1z"/>
				<path id="&lt;Path&gt;" class="s5" d="m613.1 592.5l-13.5-7.8c-1.1-0.6-0.9-1.7 0.3-2.5l13.4-7.7c1.3-0.7 3.2-0.8 4.3-0.2l13.5 7.8c1.1 0.7 0.9 1.8-0.3 2.5l-13.4 7.7c-1.3 0.8-3.2 0.8-4.3 0.2z"/>
				<path id="&lt;Path&gt;" class="s5" d="m634 604.6l-13.5-7.8c-1.1-0.7-0.9-1.8 0.3-2.5l13.4-7.7c1.3-0.8 3.2-0.8 4.3-0.2l13.5 7.8c1.1 0.6 0.9 1.7-0.3 2.5l-13.4 7.7c-1.3 0.7-3.2 0.8-4.3 0.2z"/>
				<path id="&lt;Path&gt;" class="s5" d="m654.9 616.6l-13.5-7.8c-1.1-0.6-0.9-1.7 0.3-2.4l13.4-7.8c1.3-0.7 3.2-0.8 4.3-0.1l13.5 7.8c1.1 0.6 0.9 1.7-0.3 2.4l-13.4 7.8c-1.3 0.7-3.2 0.8-4.3 0.1z"/>
				<path id="&lt;Path&gt;" class="s5" d="m675.8 628.7l-13.5-7.8c-1.1-0.6-1-1.7 0.3-2.5l13.4-7.7c1.3-0.7 3.2-0.8 4.3-0.2l13.5 7.8c1.1 0.7 0.9 1.8-0.3 2.5l-13.4 7.7c-1.3 0.8-3.2 0.8-4.3 0.2z"/>
				<path id="&lt;Path&gt;" class="s5" d="m696.7 640.8l-13.5-7.8c-1.1-0.7-1-1.8 0.3-2.5l13.4-7.7c1.3-0.8 3.2-0.8 4.3-0.2l13.5 7.8c1.1 0.6 0.9 1.7-0.3 2.5l-13.4 7.7c-1.3 0.7-3.2 0.8-4.3 0.2z"/>
				<path id="&lt;Path&gt;" class="s5" d="m733.9 662.2l-29.5-17c-1.1-0.7-1-1.7 0.3-2.5l13.4-7.7c1.2-0.7 3.1-0.8 4.2-0.2l29.5 17.1c1.1 0.6 1 1.7-0.3 2.4l-13.4 7.7c-1.2 0.8-3.1 0.9-4.2 0.2z"/>
				<path id="&lt;Path&gt;" class="s5" d="m774.6 638.7l-24.9-14.4c-1.1-0.6-1-1.7 0.3-2.4l13.4-7.7c1.2-0.8 3.1-0.8 4.2-0.2l24.9 14.4c1.1 0.6 1 1.7-0.3 2.4l-13.4 7.8c-1.2 0.7-3.1 0.8-4.2 0.1z"/>
				<path id="&lt;Path&gt;" class="s5" d="m566.1 541.9l-13.5-7.8c-1.1-0.7-0.9-1.8 0.3-2.5l13.4-7.7c1.3-0.7 3.2-0.8 4.3-0.2l13.5 7.8c1.1 0.6 0.9 1.7-0.3 2.5l-13.4 7.7c-1.3 0.7-3.2 0.8-4.3 0.2z"/>
				<path id="&lt;Path&gt;" class="s5" d="m544.7 529.5l-13.5-7.8c-1.1-0.6-1-1.7 0.3-2.4l13.4-7.8c1.3-0.7 3.2-0.8 4.2-0.2l13.6 7.9c1.1 0.6 0.9 1.7-0.3 2.4l-13.4 7.7c-1.3 0.8-3.2 0.8-4.3 0.2z"/>
				<path id="&lt;Path&gt;" class="s5" d="m523.3 517.2l-13.5-7.9c-1.1-0.6-1-1.7 0.3-2.4l13.4-7.8c1.2-0.7 3.1-0.8 4.2-0.1l13.6 7.8c1 0.6 0.9 1.7-0.4 2.4l-13.4 7.8c-1.2 0.7-3.1 0.8-4.2 0.2z"/>
				<path id="&lt;Path&gt;" class="s5" d="m501.9 504.8l-13.6-7.8c-1-0.7-0.9-1.8 0.4-2.5l13.4-7.7c1.2-0.7 3.1-0.8 4.2-0.2l13.5 7.8c1.1 0.6 1 1.7-0.3 2.5l-13.4 7.7c-1.2 0.7-3.1 0.8-4.2 0.2z"/>
				<path id="&lt;Path&gt;" class="s5" d="m587 554l-13.5-7.9c-1.1-0.6-0.9-1.7 0.3-2.4l13.4-7.8c1.3-0.7 3.2-0.8 4.3-0.1l13.5 7.8c1.1 0.6 0.9 1.7-0.3 2.4l-13.4 7.8c-1.3 0.7-3.2 0.8-4.3 0.2z"/>
				<path id="&lt;Path&gt;" class="s5" d="m607.9 566l-13.5-7.8c-1.1-0.6-0.9-1.7 0.3-2.4l13.4-7.8c1.3-0.7 3.2-0.8 4.3-0.2l13.5 7.9c1.1 0.6 0.9 1.7-0.3 2.4l-13.4 7.7c-1.3 0.8-3.2 0.8-4.3 0.2z"/>
				<path id="&lt;Path&gt;" class="s5" d="m628.8 578.1l-13.5-7.8c-1.1-0.7-0.9-1.8 0.3-2.5l13.4-7.7c1.3-0.7 3.2-0.8 4.3-0.2l13.5 7.8c1.1 0.6 0.9 1.7-0.3 2.5l-13.4 7.7c-1.3 0.7-3.2 0.8-4.3 0.2z"/>
				<path id="&lt;Path&gt;" class="s5" d="m649.7 590.1l-13.5-7.8c-1.1-0.6-0.9-1.7 0.3-2.4l13.4-7.8c1.3-0.7 3.2-0.8 4.3-0.1l13.5 7.8c1.1 0.6 0.9 1.7-0.3 2.4l-13.4 7.8c-1.3 0.7-3.2 0.8-4.3 0.1z"/>
				<path id="&lt;Path&gt;" class="s5" d="m670.6 602.2l-13.5-7.8c-1.1-0.6-0.9-1.7 0.3-2.4l13.4-7.8c1.3-0.7 3.2-0.8 4.3-0.2l13.5 7.8c1.1 0.7 0.9 1.8-0.3 2.5l-13.4 7.7c-1.3 0.8-3.2 0.8-4.3 0.2z"/>
				<path id="&lt;Path&gt;" class="s5" d="m691.5 614.3l-13.5-7.8c-1.1-0.7-1-1.8 0.3-2.5l13.4-7.7c1.3-0.7 3.2-0.8 4.3-0.2l13.5 7.8c1.1 0.6 0.9 1.7-0.3 2.5l-13.4 7.7c-1.3 0.7-3.2 0.8-4.3 0.2z"/>
				<path id="&lt;Path&gt;" class="s5" d="m712.4 626.3l-13.5-7.8c-1.1-0.6-1-1.7 0.3-2.4l13.4-7.8c1.3-0.7 3.2-0.8 4.3-0.1l13.5 7.8c1.1 0.6 0.9 1.7-0.3 2.4l-13.4 7.8c-1.3 0.7-3.2 0.8-4.3 0.1z"/>
				<path id="&lt;Path&gt;" class="s5" d="m733.3 638.4l-13.5-7.8c-1.1-0.6-1-1.7 0.3-2.4l13.4-7.8c1.3-0.7 3.2-0.8 4.3-0.2l13.5 7.8c1.1 0.7 0.9 1.8-0.3 2.5l-13.4 7.7c-1.3 0.8-3.2 0.8-4.3 0.2z"/>
				<path id="&lt;Path&gt;" class="s5" d="m754.2 650.5l-13.5-7.8c-1.1-0.7-1-1.8 0.3-2.5l13.4-7.7c1.3-0.7 3.2-0.8 4.3-0.2l13.5 7.8c1.1 0.6 0.9 1.7-0.3 2.5l-13.4 7.7c-1.3 0.7-3.2 0.8-4.3 0.2z"/>
				<path id="&lt;Path&gt;" class="s5" d="m555.1 512l-13.5-7.8c-1.1-0.6-1-1.7 0.3-2.4l13.4-7.8c1.3-0.7 3.2-0.8 4.3-0.1l13.5 7.8c1.1 0.6 0.9 1.7-0.3 2.4l-13.4 7.8c-1.3 0.7-3.2 0.8-4.3 0.1z"/>
				<path id="&lt;Path&gt;" class="s5" d="m534.3 500l-13.5-7.8c-1.1-0.6-0.9-1.7 0.3-2.4l13.4-7.8c1.3-0.7 3.2-0.8 4.3-0.1l13.5 7.8c1.1 0.6 0.9 1.7-0.3 2.4l-13.4 7.8c-1.3 0.7-3.2 0.8-4.3 0.1z"/>
				<path id="&lt;Path&gt;" class="s5" d="m513.5 488l-13.5-7.8c-1.1-0.6-0.9-1.7 0.3-2.4l13.4-7.8c1.3-0.7 3.2-0.8 4.3-0.2l13.5 7.9c1.1 0.6 0.9 1.7-0.3 2.4l-13.4 7.8c-1.3 0.7-3.2 0.8-4.3 0.1z"/>
				<path id="&lt;Path&gt;" class="s5" d="m492.7 476l-13.5-7.8c-1.1-0.6-0.9-1.7 0.3-2.4l13.4-7.8c1.3-0.7 3.2-0.8 4.3-0.2l13.5 7.9c1.1 0.6 1 1.7-0.3 2.4l-13.4 7.7c-1.3 0.8-3.2 0.8-4.3 0.2z"/>
				<path id="&lt;Path&gt;" class="s5" d="m514.1 463.7l-13.5-7.8c-1.1-0.7-1-1.8 0.3-2.5l4.4-2.5c1.3-0.8 3.2-0.8 4.3-0.2l13.5 7.8c1.1 0.6 1 1.7-0.3 2.4l-4.4 2.6c-1.3 0.7-3.2 0.8-4.3 0.2z"/>
				<path id="&lt;Path&gt;" class="s5" d="m541.3 479.3l-13.6-7.8c-1.1-0.6-0.9-1.7 0.3-2.4l4.5-2.6c1.2-0.7 3.1-0.8 4.2-0.2l13.5 7.9c1.1 0.6 1 1.7-0.3 2.4l-4.4 2.6c-1.2 0.7-3.1 0.8-4.2 0.1z"/>
				<path id="&lt;Path&gt;" class="s5" d="m562 491.3l-13.6-7.8c-1-0.6-0.9-1.7 0.3-2.5l4.5-2.5c1.2-0.7 3.1-0.8 4.2-0.2l13.6 7.8c1 0.6 0.9 1.7-0.4 2.5l-4.4 2.5c-1.2 0.7-3.1 0.8-4.2 0.2z"/>
				<path id="&lt;Path&gt;" class="s5" d="m582.7 503.3l-13.5-7.9c-1.1-0.6-1-1.7 0.3-2.4l4.4-2.6c1.2-0.7 3.1-0.8 4.2-0.1l13.6 7.8c1 0.6 0.9 1.7-0.3 2.4l-4.5 2.6c-1.2 0.7-3.1 0.8-4.2 0.2z"/>
				<path id="&lt;Path&gt;" class="s5" d="m603.4 515.2l-13.5-7.8c-1.1-0.6-1-1.7 0.3-2.5l4.4-2.5c1.3-0.7 3.2-0.8 4.2-0.2l13.6 7.8c1.1 0.7 0.9 1.8-0.3 2.5l-4.5 2.5c-1.2 0.8-3.1 0.8-4.2 0.2z"/>
				<path id="&lt;Path&gt;" class="s5" d="m719 582l-13.5-7.9c-1.1-0.6-1-1.7 0.3-2.4l4.4-2.6c1.3-0.7 3.2-0.8 4.3-0.1l13.5 7.8c1.1 0.6 0.9 1.7-0.3 2.4l-4.5 2.6c-1.2 0.7-3.1 0.8-4.2 0.2z"/>
				<path id="&lt;Path&gt;" class="s5" d="m739.7 593.9l-13.5-7.8c-1.1-0.6-1-1.7 0.3-2.4l4.4-2.6c1.3-0.7 3.2-0.8 4.3-0.2l13.5 7.8c1.1 0.7 0.9 1.8-0.3 2.5l-4.4 2.5c-1.3 0.8-3.2 0.8-4.3 0.2z"/>
				<path id="&lt;Path&gt;" class="s5" d="m760.4 605.9l-13.5-7.8c-1.1-0.7-1-1.8 0.3-2.5l4.4-2.5c1.3-0.8 3.2-0.9 4.3-0.2l13.5 7.8c1.1 0.6 1 1.7-0.3 2.4l-4.4 2.6c-1.3 0.7-3.2 0.8-4.3 0.2z"/>
				<path id="&lt;Path&gt;" class="s5" d="m781.1 617.8l-13.5-7.8c-1.1-0.6-0.9-1.7 0.3-2.4l4.4-2.6c1.3-0.7 3.2-0.8 4.3-0.2l13.5 7.8c1.1 0.7 1 1.8-0.3 2.5l-4.4 2.6c-1.3 0.7-3.2 0.8-4.3 0.1z"/>
				<path id="&lt;Path&gt;" class="s5" d="m576 524.1l-13.5-7.8c-1.1-0.6-1-1.7 0.3-2.5l13.4-7.7c1.3-0.7 3.2-0.8 4.3-0.2l13.5 7.8c1.1 0.7 0.9 1.8-0.3 2.5l-13.4 7.7c-1.3 0.8-3.2 0.8-4.3 0.2z"/>
				<path id="&lt;Path&gt;" class="s5" d="m596.9 536.2l-13.5-7.8c-1.1-0.7-1-1.8 0.3-2.5l13.4-7.7c1.3-0.8 3.2-0.8 4.3-0.2l13.5 7.8c1.1 0.6 0.9 1.7-0.3 2.5l-13.4 7.7c-1.3 0.7-3.2 0.8-4.3 0.2z"/>
				<path id="&lt;Path&gt;" class="s5" d="m617.8 548.2l-13.5-7.8c-1.1-0.6-1-1.7 0.3-2.4l13.4-7.8c1.3-0.7 3.2-0.8 4.3-0.1l13.5 7.8c1.1 0.6 0.9 1.7-0.3 2.4l-13.4 7.8c-1.3 0.7-3.2 0.8-4.3 0.1z"/>
				<path id="&lt;Path&gt;" class="s5" d="m638.7 560.3l-13.5-7.8c-1.1-0.6-1-1.7 0.3-2.5l13.4-7.7c1.3-0.7 3.2-0.8 4.2-0.2l13.6 7.8c1.1 0.7 0.9 1.8-0.3 2.5l-13.4 7.7c-1.3 0.8-3.2 0.8-4.3 0.2z"/>
				<path id="&lt;Path&gt;" class="s5" d="m659.6 572.4l-13.5-7.8c-1.1-0.7-1-1.8 0.3-2.5l13.4-7.7c1.3-0.8 3.2-0.8 4.2-0.2l13.6 7.8c1.1 0.6 0.9 1.7-0.3 2.5l-13.4 7.7c-1.3 0.7-3.2 0.8-4.3 0.2z"/>
				<path id="&lt;Path&gt;" class="s5" d="m680.5 584.4l-13.5-7.8c-1.1-0.6-1-1.7 0.3-2.4l13.4-7.8c1.3-0.7 3.2-0.8 4.2-0.1l13.6 7.8c1.1 0.6 0.9 1.7-0.3 2.4l-13.4 7.8c-1.3 0.7-3.2 0.8-4.3 0.1z"/>
				<path id="&lt;Path&gt;" class="s5" d="m701.4 596.5l-13.5-7.8c-1.1-0.6-1-1.7 0.3-2.5l13.4-7.7c1.3-0.7 3.2-0.8 4.2-0.2l13.6 7.8c1.1 0.7 0.9 1.8-0.3 2.5l-13.4 7.7c-1.3 0.8-3.2 0.8-4.3 0.2z"/>
				<path id="&lt;Path&gt;" class="s5" d="m722.3 608.6l-13.5-7.8c-1.1-0.7-1-1.8 0.3-2.5l13.4-7.7c1.3-0.8 3.2-0.8 4.2-0.2l13.6 7.8c1.1 0.6 0.9 1.7-0.3 2.5l-13.4 7.7c-1.3 0.7-3.2 0.8-4.3 0.2z"/>
				<path id="&lt;Path&gt;" class="s5" d="m743.2 620.6l-13.5-7.8c-1.1-0.6-1-1.7 0.3-2.4l13.4-7.8c1.3-0.7 3.2-0.8 4.2-0.1l13.6 7.8c1.1 0.6 0.9 1.7-0.3 2.4l-13.4 7.8c-1.3 0.7-3.2 0.8-4.3 0.1z"/>
				<path id="&lt;Path&gt;" class="s5" d="m456.5 525.6l-39.8-23c-1.1-0.6-1-1.7 0.3-2.5l13.4-7.7c1.3-0.7 3.2-0.8 4.2-0.2l39.9 23c1.1 0.7 1 1.8-0.3 2.5l-13.4 7.7c-1.3 0.7-3.2 0.8-4.3 0.2z"/>
				<path id="&lt;Path&gt;" class="s5" d="m713.3 673.8l-39.9-23c-1-0.6-0.9-1.7 0.3-2.4l13.5-7.8c1.2-0.7 3.1-0.8 4.2-0.1l39.9 23c1 0.6 0.9 1.7-0.4 2.4l-13.4 7.8c-1.2 0.7-3.1 0.8-4.2 0.1z"/>
				<path id="&lt;Path&gt;" class="s5" d="m629.7 652.2l-13.5-7.8c-1.1-0.6-1-1.7 0.3-2.4l16-9.3c1.2-0.7 3.1-0.8 4.2-0.1l13.5 7.8c1.1 0.6 1 1.7-0.3 2.4l-15.9 9.3c-1.3 0.7-3.2 0.8-4.3 0.1z"/>
				<path id="&lt;Path&gt;" class="s5" d="m478 564.6l-21.7-12.5c-1.1-0.6-0.9-1.7 0.3-2.4l16-9.3c1.2-0.7 3.1-0.8 4.2-0.1l21.7 12.5c1.1 0.6 0.9 1.7-0.3 2.4l-16 9.2c-1.3 0.8-3.2 0.8-4.2 0.2z"/>
				<path id="&lt;Path&gt;" class="s5" d="m609.6 640.6l-21.7-12.5c-1-0.6-0.9-1.7 0.3-2.4l16-9.3c1.3-0.7 3.2-0.8 4.3-0.1l21.6 12.5c1.1 0.6 1 1.7-0.3 2.4l-16 9.2c-1.2 0.8-3.1 0.8-4.2 0.2z"/>
				<path id="&lt;Path&gt;" class="s5" d="m508.1 582l-21.6-12.5c-1.1-0.6-1-1.7 0.3-2.4l15.9-9.3c1.3-0.7 3.2-0.8 4.3-0.1l21.6 12.5c1.1 0.6 1 1.7-0.3 2.4l-16 9.2c-1.2 0.8-3.1 0.8-4.2 0.2z"/>
				<path id="&lt;Path&gt;" class="s5" d="m507.1 557.8l94.1 54.3c1.2 0.7 1.2 1.8 0 2.4l-16.3 9.4c-1.1 0.7-3 0.7-4.2 0l-94.1-54.3z"/>
				<path id="&lt;Path&gt;" class="s5" d="m688.1 674.1l15.1 8.7c0.9 0.5 0.8 1.4-0.2 2l-6.6 3.8c-1 0.6-2.6 0.6-3.5 0.1l-15-8.7c-0.9-0.5-0.8-1.4 0.2-2l6.6-3.7c1-0.6 2.5-0.7 3.4-0.2z"/>
				<path id="&lt;Path&gt;" class="s5" d="m667.1 661.9l15 8.7c0.9 0.6 0.8 1.5-0.2 2.1l-6.6 3.7c-1 0.6-2.5 0.7-3.4 0.2l-15.1-8.7c-0.9-0.6-0.8-1.4 0.2-2l6.6-3.8c1-0.6 2.6-0.7 3.5-0.2z"/>
				<path id="&lt;Path&gt;" class="s5" d="m646.2 649.9l15 8.7c0.9 0.5 0.8 1.4-0.2 2l-6.5 3.8c-1.1 0.6-2.6 0.6-3.5 0.1l-15.1-8.7c-0.9-0.5-0.8-1.4 0.3-2l6.5-3.8c1-0.6 2.6-0.6 3.5-0.1z"/>
				<path id="&lt;Path&gt;" class="s5" d="m678.6 655.3l15.1 8.7c0.9 0.5 0.8 1.4-0.3 2l-6.5 3.8c-1 0.6-2.6 0.6-3.5 0.1l-15.1-8.7c-0.8-0.5-0.7-1.4 0.3-2l6.5-3.8c1.1-0.6 2.6-0.6 3.5-0.1z"/>
			</g>
			<g id="&lt;Group&gt;" style="opacity: .4">
				<path id="&lt;Path&gt;" class="s5" d="m407.1 523.7l-13.5-7.8c-1.1-0.6-0.9-1.7 0.3-2.4l16-9.3c1.2-0.7 3.1-0.8 4.2-0.1l13.6 7.8c1 0.6 0.9 1.7-0.3 2.4l-16 9.2c-1.3 0.8-3.2 0.9-4.3 0.2z"/>
				<path id="&lt;Path&gt;" class="s5" d="m428 535.8l-13.5-7.8c-1.1-0.7-0.9-1.7 0.3-2.5l16-9.2c1.2-0.7 3.1-0.8 4.2-0.2l13.6 7.8c1 0.7 0.9 1.8-0.3 2.5l-16 9.2c-1.3 0.7-3.2 0.8-4.3 0.2z"/>
				<path id="&lt;Path&gt;" class="s5" d="m448.9 547.9l-13.5-7.9c-1.1-0.6-0.9-1.7 0.3-2.4l16-9.2c1.2-0.8 3.1-0.8 4.2-0.2l13.6 7.8c1 0.6 0.9 1.7-0.3 2.5l-16 9.2c-1.3 0.7-3.2 0.8-4.3 0.2z"/>
				<path id="&lt;Path&gt;" class="s5" d="m477.8 537.9l-13.5-7.8c-1.1-0.6-0.9-1.7 0.3-2.5l13.4-7.7c1.3-0.7 3.2-0.8 4.3-0.2l13.5 7.8c1.1 0.7 0.9 1.7-0.3 2.5l-13.4 7.7c-1.3 0.7-3.2 0.8-4.3 0.2z"/>
				<path id="&lt;Path&gt;" class="s5" d="m498.7 550l-13.5-7.9c-1.1-0.6-0.9-1.7 0.3-2.4l13.4-7.7c1.3-0.8 3.2-0.8 4.3-0.2l13.5 7.8c1.1 0.6 0.9 1.7-0.3 2.4l-13.4 7.8c-1.3 0.7-3.2 0.8-4.3 0.2z"/>
				<path id="&lt;Path&gt;" class="s5" d="m519.6 562l-13.5-7.8c-1.1-0.6-0.9-1.7 0.3-2.4l13.4-7.8c1.3-0.7 3.2-0.8 4.3-0.2l13.5 7.9c1.1 0.6 0.9 1.7-0.3 2.4l-13.4 7.7c-1.3 0.8-3.2 0.9-4.3 0.2z"/>
				<path id="&lt;Path&gt;" class="s5" d="m540.5 574.1l-13.5-7.8c-1.1-0.7-0.9-1.7 0.3-2.5l13.4-7.7c1.3-0.7 3.2-0.8 4.3-0.2l13.5 7.8c1.1 0.7 0.9 1.7-0.3 2.5l-13.4 7.7c-1.3 0.7-3.2 0.8-4.3 0.2z"/>
				<path id="&lt;Path&gt;" class="s5" d="m561.4 586.2l-13.5-7.9c-1.1-0.6-0.9-1.7 0.3-2.4l13.4-7.7c1.3-0.8 3.2-0.8 4.3-0.2l13.5 7.8c1.1 0.6 0.9 1.7-0.3 2.4l-13.4 7.8c-1.3 0.7-3.2 0.8-4.3 0.2z"/>
				<path id="&lt;Path&gt;" class="s5" d="m582.3 598.2l-13.5-7.8c-1.1-0.6-0.9-1.7 0.3-2.4l13.4-7.8c1.3-0.7 3.2-0.8 4.3-0.2l13.5 7.9c1.1 0.6 0.9 1.7-0.3 2.4l-13.4 7.7c-1.3 0.8-3.2 0.8-4.3 0.2z"/>
				<path id="&lt;Path&gt;" class="s5" d="m603.2 610.3l-13.5-7.8c-1.1-0.7-0.9-1.7 0.3-2.5l13.4-7.7c1.3-0.7 3.2-0.8 4.3-0.2l13.5 7.8c1.1 0.7 0.9 1.7-0.3 2.5l-13.4 7.7c-1.3 0.7-3.2 0.8-4.3 0.2z"/>
				<path id="&lt;Path&gt;" class="s5" d="m624.1 622.4l-13.5-7.9c-1.1-0.6-0.9-1.7 0.3-2.4l13.4-7.7c1.3-0.8 3.2-0.9 4.3-0.2l13.5 7.8c1.1 0.6 0.9 1.7-0.3 2.4l-13.4 7.8c-1.3 0.7-3.2 0.8-4.3 0.2z"/>
				<path id="&lt;Path&gt;" class="s5" d="m645 634.4l-13.5-7.8c-1.1-0.6-0.9-1.7 0.3-2.4l13.4-7.8c1.3-0.7 3.2-0.8 4.3-0.2l13.5 7.9c1.1 0.6 0.9 1.7-0.3 2.4l-13.4 7.7c-1.3 0.8-3.2 0.8-4.3 0.2z"/>
				<path id="&lt;Path&gt;" class="s5" d="m665.9 646.5l-13.5-7.8c-1.1-0.7-0.9-1.7 0.3-2.5l13.4-7.7c1.3-0.7 3.2-0.8 4.3-0.2l13.5 7.8c1.1 0.6 0.9 1.7-0.3 2.5l-13.4 7.7c-1.3 0.7-3.2 0.8-4.3 0.2z"/>
				<path id="&lt;Path&gt;" class="s5" d="m508.6 532.2l-13.5-7.8c-1.1-0.7-0.9-1.8 0.3-2.5l13.4-7.7c1.3-0.7 3.2-0.8 4.3-0.2l13.5 7.8c1.1 0.6 0.9 1.7-0.3 2.5l-13.4 7.7c-1.3 0.7-3.2 0.8-4.3 0.2z"/>
				<path id="&lt;Path&gt;" class="s5" d="m487.4 519.9l-13.5-7.8c-1.1-0.6-1-1.7 0.3-2.4l13.4-7.8c1.3-0.7 3.2-0.8 4.2-0.1l13.6 7.8c1.1 0.6 0.9 1.7-0.3 2.4l-13.4 7.8c-1.3 0.7-3.2 0.8-4.3 0.1z"/>
				<path id="&lt;Path&gt;" class="s5" d="m466.2 507.7l-29.2-16.9c-1.1-0.6-0.9-1.7 0.3-2.4l13.4-7.8c1.3-0.7 3.2-0.8 4.3-0.1l29.1 16.8c1.1 0.6 1 1.7-0.3 2.4l-13.4 7.8c-1.2 0.7-3.1 0.8-4.2 0.2z"/>
				<path id="&lt;Path&gt;" class="s5" d="m481 492.7l-23.6-13.6c-1.1-0.6-1-1.7 0.3-2.5l13.4-7.7c1.2-0.7 3.1-0.8 4.2-0.2l23.7 13.7c1.1 0.6 0.9 1.7-0.3 2.4l-13.4 7.8c-1.3 0.7-3.2 0.8-4.3 0.1z"/>
				<path id="&lt;Path&gt;" class="s5" d="m529.5 544.2l-13.5-7.8c-1.1-0.6-0.9-1.7 0.3-2.4l13.4-7.8c1.3-0.7 3.2-0.8 4.3-0.1l13.5 7.8c1.1 0.6 0.9 1.7-0.3 2.4l-13.4 7.8c-1.3 0.7-3.2 0.8-4.3 0.1z"/>
				<path id="&lt;Path&gt;" class="s5" d="m550.4 556.3l-13.5-7.8c-1.1-0.6-0.9-1.7 0.3-2.4l13.4-7.8c1.3-0.7 3.2-0.8 4.3-0.2l13.5 7.8c1.1 0.7 0.9 1.8-0.3 2.5l-13.4 7.7c-1.3 0.8-3.2 0.8-4.3 0.2z"/>
				<path id="&lt;Path&gt;" class="s5" d="m571.3 568.4l-13.5-7.8c-1.1-0.7-0.9-1.8 0.3-2.5l13.4-7.7c1.3-0.8 3.2-0.8 4.3-0.2l13.5 7.8c1.1 0.6 0.9 1.7-0.3 2.5l-13.4 7.7c-1.3 0.7-3.2 0.8-4.3 0.2z"/>
				<path id="&lt;Path&gt;" class="s5" d="m592.2 580.4l-13.5-7.8c-1.1-0.6-0.9-1.7 0.3-2.4l13.4-7.8c1.3-0.7 3.2-0.8 4.3-0.1l13.5 7.8c1.1 0.6 0.9 1.7-0.3 2.4l-13.4 7.8c-1.3 0.7-3.2 0.8-4.3 0.1z"/>
				<path id="&lt;Path&gt;" class="s5" d="m613.1 592.5l-13.5-7.8c-1.1-0.6-0.9-1.7 0.3-2.5l13.4-7.7c1.3-0.7 3.2-0.8 4.3-0.2l13.5 7.8c1.1 0.7 0.9 1.8-0.3 2.5l-13.4 7.7c-1.3 0.8-3.2 0.8-4.3 0.2z"/>
				<path id="&lt;Path&gt;" class="s5" d="m634 604.6l-13.5-7.8c-1.1-0.7-0.9-1.8 0.3-2.5l13.4-7.7c1.3-0.8 3.2-0.8 4.3-0.2l13.5 7.8c1.1 0.6 0.9 1.7-0.3 2.5l-13.4 7.7c-1.3 0.7-3.2 0.8-4.3 0.2z"/>
				<path id="&lt;Path&gt;" class="s5" d="m654.9 616.6l-13.5-7.8c-1.1-0.6-0.9-1.7 0.3-2.4l13.4-7.8c1.3-0.7 3.2-0.8 4.3-0.1l13.5 7.8c1.1 0.6 0.9 1.7-0.3 2.4l-13.4 7.8c-1.3 0.7-3.2 0.8-4.3 0.1z"/>
				<path id="&lt;Path&gt;" class="s5" d="m675.8 628.7l-13.5-7.8c-1.1-0.6-1-1.7 0.3-2.5l13.4-7.7c1.3-0.7 3.2-0.8 4.3-0.2l13.5 7.8c1.1 0.7 0.9 1.8-0.3 2.5l-13.4 7.7c-1.3 0.8-3.2 0.8-4.3 0.2z"/>
				<path id="&lt;Path&gt;" class="s5" d="m696.7 640.8l-13.5-7.8c-1.1-0.7-1-1.8 0.3-2.5l13.4-7.7c1.3-0.8 3.2-0.8 4.3-0.2l13.5 7.8c1.1 0.6 0.9 1.7-0.3 2.5l-13.4 7.7c-1.3 0.7-3.2 0.8-4.3 0.2z"/>
				<path id="&lt;Path&gt;" class="s5" d="m733.9 662.2l-29.5-17c-1.1-0.7-1-1.7 0.3-2.5l13.4-7.7c1.2-0.7 3.1-0.8 4.2-0.2l29.5 17.1c1.1 0.6 1 1.7-0.3 2.4l-13.4 7.7c-1.2 0.8-3.1 0.9-4.2 0.2z"/>
				<path id="&lt;Path&gt;" class="s5" d="m774.6 638.7l-24.9-14.4c-1.1-0.6-1-1.7 0.3-2.4l13.4-7.7c1.2-0.8 3.1-0.8 4.2-0.2l24.9 14.4c1.1 0.6 1 1.7-0.3 2.4l-13.4 7.8c-1.2 0.7-3.1 0.8-4.2 0.1z"/>
				<path id="&lt;Path&gt;" class="s5" d="m566.1 541.9l-13.5-7.8c-1.1-0.7-0.9-1.8 0.3-2.5l13.4-7.7c1.3-0.7 3.2-0.8 4.3-0.2l13.5 7.8c1.1 0.6 0.9 1.7-0.3 2.5l-13.4 7.7c-1.3 0.7-3.2 0.8-4.3 0.2z"/>
				<path id="&lt;Path&gt;" class="s5" d="m544.7 529.5l-13.5-7.8c-1.1-0.6-1-1.7 0.3-2.4l13.4-7.8c1.3-0.7 3.2-0.8 4.2-0.2l13.6 7.9c1.1 0.6 0.9 1.7-0.3 2.4l-13.4 7.7c-1.3 0.8-3.2 0.8-4.3 0.2z"/>
				<path id="&lt;Path&gt;" class="s5" d="m523.3 517.2l-13.5-7.9c-1.1-0.6-1-1.7 0.3-2.4l13.4-7.8c1.2-0.7 3.1-0.8 4.2-0.1l13.6 7.8c1 0.6 0.9 1.7-0.4 2.4l-13.4 7.8c-1.2 0.7-3.1 0.8-4.2 0.2z"/>
				<path id="&lt;Path&gt;" class="s5" d="m501.9 504.8l-13.6-7.8c-1-0.7-0.9-1.8 0.4-2.5l13.4-7.7c1.2-0.7 3.1-0.8 4.2-0.2l13.5 7.8c1.1 0.6 1 1.7-0.3 2.5l-13.4 7.7c-1.2 0.7-3.1 0.8-4.2 0.2z"/>
				<path id="&lt;Path&gt;" class="s5" d="m587 554l-13.5-7.9c-1.1-0.6-0.9-1.7 0.3-2.4l13.4-7.8c1.3-0.7 3.2-0.8 4.3-0.1l13.5 7.8c1.1 0.6 0.9 1.7-0.3 2.4l-13.4 7.8c-1.3 0.7-3.2 0.8-4.3 0.2z"/>
				<path id="&lt;Path&gt;" class="s5" d="m607.9 566l-13.5-7.8c-1.1-0.6-0.9-1.7 0.3-2.4l13.4-7.8c1.3-0.7 3.2-0.8 4.3-0.2l13.5 7.9c1.1 0.6 0.9 1.7-0.3 2.4l-13.4 7.7c-1.3 0.8-3.2 0.8-4.3 0.2z"/>
				<path id="&lt;Path&gt;" class="s5" d="m628.8 578.1l-13.5-7.8c-1.1-0.7-0.9-1.8 0.3-2.5l13.4-7.7c1.3-0.7 3.2-0.8 4.3-0.2l13.5 7.8c1.1 0.6 0.9 1.7-0.3 2.5l-13.4 7.7c-1.3 0.7-3.2 0.8-4.3 0.2z"/>
				<path id="&lt;Path&gt;" class="s5" d="m649.7 590.1l-13.5-7.8c-1.1-0.6-0.9-1.7 0.3-2.4l13.4-7.8c1.3-0.7 3.2-0.8 4.3-0.1l13.5 7.8c1.1 0.6 0.9 1.7-0.3 2.4l-13.4 7.8c-1.3 0.7-3.2 0.8-4.3 0.1z"/>
				<path id="&lt;Path&gt;" class="s5" d="m670.6 602.2l-13.5-7.8c-1.1-0.6-0.9-1.7 0.3-2.4l13.4-7.8c1.3-0.7 3.2-0.8 4.3-0.2l13.5 7.8c1.1 0.7 0.9 1.8-0.3 2.5l-13.4 7.7c-1.3 0.8-3.2 0.8-4.3 0.2z"/>
				<path id="&lt;Path&gt;" class="s5" d="m691.5 614.3l-13.5-7.8c-1.1-0.7-1-1.8 0.3-2.5l13.4-7.7c1.3-0.7 3.2-0.8 4.3-0.2l13.5 7.8c1.1 0.6 0.9 1.7-0.3 2.5l-13.4 7.7c-1.3 0.7-3.2 0.8-4.3 0.2z"/>
				<path id="&lt;Path&gt;" class="s5" d="m712.4 626.3l-13.5-7.8c-1.1-0.6-1-1.7 0.3-2.4l13.4-7.8c1.3-0.7 3.2-0.8 4.3-0.1l13.5 7.8c1.1 0.6 0.9 1.7-0.3 2.4l-13.4 7.8c-1.3 0.7-3.2 0.8-4.3 0.1z"/>
				<path id="&lt;Path&gt;" class="s5" d="m733.3 638.4l-13.5-7.8c-1.1-0.6-1-1.7 0.3-2.4l13.4-7.8c1.3-0.7 3.2-0.8 4.3-0.2l13.5 7.8c1.1 0.7 0.9 1.8-0.3 2.5l-13.4 7.7c-1.3 0.8-3.2 0.8-4.3 0.2z"/>
				<path id="&lt;Path&gt;" class="s5" d="m754.2 650.5l-13.5-7.8c-1.1-0.7-1-1.8 0.3-2.5l13.4-7.7c1.3-0.7 3.2-0.8 4.3-0.2l13.5 7.8c1.1 0.6 0.9 1.7-0.3 2.5l-13.4 7.7c-1.3 0.7-3.2 0.8-4.3 0.2z"/>
				<path id="&lt;Path&gt;" class="s5" d="m555.1 512l-13.5-7.8c-1.1-0.6-1-1.7 0.3-2.4l13.4-7.8c1.3-0.7 3.2-0.8 4.3-0.1l13.5 7.8c1.1 0.6 0.9 1.7-0.3 2.4l-13.4 7.8c-1.3 0.7-3.2 0.8-4.3 0.1z"/>
				<path id="&lt;Path&gt;" class="s5" d="m534.3 500l-13.5-7.8c-1.1-0.6-0.9-1.7 0.3-2.4l13.4-7.8c1.3-0.7 3.2-0.8 4.3-0.1l13.5 7.8c1.1 0.6 0.9 1.7-0.3 2.4l-13.4 7.8c-1.3 0.7-3.2 0.8-4.3 0.1z"/>
				<path id="&lt;Path&gt;" class="s5" d="m513.5 488l-13.5-7.8c-1.1-0.6-0.9-1.7 0.3-2.4l13.4-7.8c1.3-0.7 3.2-0.8 4.3-0.2l13.5 7.9c1.1 0.6 0.9 1.7-0.3 2.4l-13.4 7.8c-1.3 0.7-3.2 0.8-4.3 0.1z"/>
				<path id="&lt;Path&gt;" class="s5" d="m492.7 476l-13.5-7.8c-1.1-0.6-0.9-1.7 0.3-2.4l13.4-7.8c1.3-0.7 3.2-0.8 4.3-0.2l13.5 7.9c1.1 0.6 1 1.7-0.3 2.4l-13.4 7.7c-1.3 0.8-3.2 0.8-4.3 0.2z"/>
				<path id="&lt;Path&gt;" class="s5" d="m514.1 463.7l-13.5-7.8c-1.1-0.7-1-1.8 0.3-2.5l4.4-2.5c1.3-0.8 3.2-0.8 4.3-0.2l13.5 7.8c1.1 0.6 1 1.7-0.3 2.4l-4.4 2.6c-1.3 0.7-3.2 0.8-4.3 0.2z"/>
				<path id="&lt;Path&gt;" class="s5" d="m541.3 479.3l-13.6-7.8c-1.1-0.6-0.9-1.7 0.3-2.4l4.5-2.6c1.2-0.7 3.1-0.8 4.2-0.2l13.5 7.9c1.1 0.6 1 1.7-0.3 2.4l-4.4 2.6c-1.2 0.7-3.1 0.8-4.2 0.1z"/>
				<path id="&lt;Path&gt;" class="s5" d="m562 491.3l-13.6-7.8c-1-0.6-0.9-1.7 0.3-2.5l4.5-2.5c1.2-0.7 3.1-0.8 4.2-0.2l13.6 7.8c1 0.6 0.9 1.7-0.4 2.5l-4.4 2.5c-1.2 0.7-3.1 0.8-4.2 0.2z"/>
				<path id="&lt;Path&gt;" class="s5" d="m582.7 503.3l-13.5-7.9c-1.1-0.6-1-1.7 0.3-2.4l4.4-2.6c1.2-0.7 3.1-0.8 4.2-0.1l13.6 7.8c1 0.6 0.9 1.7-0.3 2.4l-4.5 2.6c-1.2 0.7-3.1 0.8-4.2 0.2z"/>
				<path id="&lt;Path&gt;" class="s5" d="m603.4 515.2l-13.5-7.8c-1.1-0.6-1-1.7 0.3-2.5l4.4-2.5c1.3-0.7 3.2-0.8 4.2-0.2l13.6 7.8c1.1 0.7 0.9 1.8-0.3 2.5l-4.5 2.5c-1.2 0.8-3.1 0.8-4.2 0.2z"/>
				<path id="&lt;Path&gt;" class="s5" d="m719 582l-13.5-7.9c-1.1-0.6-1-1.7 0.3-2.4l4.4-2.6c1.3-0.7 3.2-0.8 4.3-0.1l13.5 7.8c1.1 0.6 0.9 1.7-0.3 2.4l-4.5 2.6c-1.2 0.7-3.1 0.8-4.2 0.2z"/>
				<path id="&lt;Path&gt;" class="s5" d="m739.7 593.9l-13.5-7.8c-1.1-0.6-1-1.7 0.3-2.4l4.4-2.6c1.3-0.7 3.2-0.8 4.3-0.2l13.5 7.8c1.1 0.7 0.9 1.8-0.3 2.5l-4.4 2.5c-1.3 0.8-3.2 0.8-4.3 0.2z"/>
				<path id="&lt;Path&gt;" class="s5" d="m760.4 605.9l-13.5-7.8c-1.1-0.7-1-1.8 0.3-2.5l4.4-2.5c1.3-0.8 3.2-0.9 4.3-0.2l13.5 7.8c1.1 0.6 1 1.7-0.3 2.4l-4.4 2.6c-1.3 0.7-3.2 0.8-4.3 0.2z"/>
				<path id="&lt;Path&gt;" class="s5" d="m781.1 617.8l-13.5-7.8c-1.1-0.6-0.9-1.7 0.3-2.4l4.4-2.6c1.3-0.7 3.2-0.8 4.3-0.2l13.5 7.8c1.1 0.7 1 1.8-0.3 2.5l-4.4 2.6c-1.3 0.7-3.2 0.8-4.3 0.1z"/>
				<path id="&lt;Path&gt;" class="s5" d="m576 524.1l-13.5-7.8c-1.1-0.6-1-1.7 0.3-2.5l13.4-7.7c1.3-0.7 3.2-0.8 4.3-0.2l13.5 7.8c1.1 0.7 0.9 1.8-0.3 2.5l-13.4 7.7c-1.3 0.8-3.2 0.8-4.3 0.2z"/>
				<path id="&lt;Path&gt;" class="s5" d="m596.9 536.2l-13.5-7.8c-1.1-0.7-1-1.8 0.3-2.5l13.4-7.7c1.3-0.8 3.2-0.8 4.3-0.2l13.5 7.8c1.1 0.6 0.9 1.7-0.3 2.5l-13.4 7.7c-1.3 0.7-3.2 0.8-4.3 0.2z"/>
				<path id="&lt;Path&gt;" class="s5" d="m617.8 548.2l-13.5-7.8c-1.1-0.6-1-1.7 0.3-2.4l13.4-7.8c1.3-0.7 3.2-0.8 4.3-0.1l13.5 7.8c1.1 0.6 0.9 1.7-0.3 2.4l-13.4 7.8c-1.3 0.7-3.2 0.8-4.3 0.1z"/>
				<path id="&lt;Path&gt;" class="s5" d="m638.7 560.3l-13.5-7.8c-1.1-0.6-1-1.7 0.3-2.5l13.4-7.7c1.3-0.7 3.2-0.8 4.2-0.2l13.6 7.8c1.1 0.7 0.9 1.8-0.3 2.5l-13.4 7.7c-1.3 0.8-3.2 0.8-4.3 0.2z"/>
				<path id="&lt;Path&gt;" class="s5" d="m659.6 572.4l-13.5-7.8c-1.1-0.7-1-1.8 0.3-2.5l13.4-7.7c1.3-0.8 3.2-0.8 4.2-0.2l13.6 7.8c1.1 0.6 0.9 1.7-0.3 2.5l-13.4 7.7c-1.3 0.7-3.2 0.8-4.3 0.2z"/>
				<path id="&lt;Path&gt;" class="s5" d="m680.5 584.4l-13.5-7.8c-1.1-0.6-1-1.7 0.3-2.4l13.4-7.8c1.3-0.7 3.2-0.8 4.2-0.1l13.6 7.8c1.1 0.6 0.9 1.7-0.3 2.4l-13.4 7.8c-1.3 0.7-3.2 0.8-4.3 0.1z"/>
				<path id="&lt;Path&gt;" class="s5" d="m701.4 596.5l-13.5-7.8c-1.1-0.6-1-1.7 0.3-2.5l13.4-7.7c1.3-0.7 3.2-0.8 4.2-0.2l13.6 7.8c1.1 0.7 0.9 1.8-0.3 2.5l-13.4 7.7c-1.3 0.8-3.2 0.8-4.3 0.2z"/>
				<path id="&lt;Path&gt;" class="s5" d="m722.3 608.6l-13.5-7.8c-1.1-0.7-1-1.8 0.3-2.5l13.4-7.7c1.3-0.8 3.2-0.8 4.2-0.2l13.6 7.8c1.1 0.6 0.9 1.7-0.3 2.5l-13.4 7.7c-1.3 0.7-3.2 0.8-4.3 0.2z"/>
				<path id="&lt;Path&gt;" class="s5" d="m743.2 620.6l-13.5-7.8c-1.1-0.6-1-1.7 0.3-2.4l13.4-7.8c1.3-0.7 3.2-0.8 4.2-0.1l13.6 7.8c1.1 0.6 0.9 1.7-0.3 2.4l-13.4 7.8c-1.3 0.7-3.2 0.8-4.3 0.1z"/>
				<path id="&lt;Path&gt;" class="s5" d="m456.5 525.6l-39.8-23c-1.1-0.6-1-1.7 0.3-2.5l13.4-7.7c1.3-0.7 3.2-0.8 4.2-0.2l39.9 23c1.1 0.7 1 1.8-0.3 2.5l-13.4 7.7c-1.3 0.7-3.2 0.8-4.3 0.2z"/>
				<path id="&lt;Path&gt;" class="s5" d="m713.3 673.8l-39.9-23c-1-0.6-0.9-1.7 0.3-2.4l13.5-7.8c1.2-0.7 3.1-0.8 4.2-0.1l39.9 23c1 0.6 0.9 1.7-0.4 2.4l-13.4 7.8c-1.2 0.7-3.1 0.8-4.2 0.1z"/>
				<path id="&lt;Path&gt;" class="s5" d="m629.7 652.2l-13.5-7.8c-1.1-0.6-1-1.7 0.3-2.4l16-9.3c1.2-0.7 3.1-0.8 4.2-0.1l13.5 7.8c1.1 0.6 1 1.7-0.3 2.4l-15.9 9.3c-1.3 0.7-3.2 0.8-4.3 0.1z"/>
				<path id="&lt;Path&gt;" class="s5" d="m478 564.6l-21.7-12.5c-1.1-0.6-0.9-1.7 0.3-2.4l16-9.3c1.2-0.7 3.1-0.8 4.2-0.1l21.7 12.5c1.1 0.6 0.9 1.7-0.3 2.4l-16 9.2c-1.3 0.8-3.2 0.8-4.2 0.2z"/>
				<path id="&lt;Path&gt;" class="s5" d="m609.6 640.6l-21.7-12.5c-1-0.6-0.9-1.7 0.3-2.4l16-9.3c1.3-0.7 3.2-0.8 4.3-0.1l21.6 12.5c1.1 0.6 1 1.7-0.3 2.4l-16 9.2c-1.2 0.8-3.1 0.8-4.2 0.2z"/>
				<path id="&lt;Path&gt;" class="s5" d="m508.1 582l-21.6-12.5c-1.1-0.6-1-1.7 0.3-2.4l15.9-9.3c1.3-0.7 3.2-0.8 4.3-0.1l21.6 12.5c1.1 0.6 1 1.7-0.3 2.4l-16 9.2c-1.2 0.8-3.1 0.8-4.2 0.2z"/>
				<path id="&lt;Path&gt;" class="s5" d="m507.1 557.8l94.1 54.3c1.2 0.7 1.2 1.8 0 2.4l-16.3 9.4c-1.1 0.7-3 0.7-4.2 0l-94.1-54.3z"/>
				<path id="&lt;Path&gt;" class="s5" d="m688.1 674.1l15.1 8.7c0.9 0.5 0.8 1.4-0.2 2l-6.6 3.8c-1 0.6-2.6 0.6-3.5 0.1l-15-8.7c-0.9-0.5-0.8-1.4 0.2-2l6.6-3.7c1-0.6 2.5-0.7 3.4-0.2z"/>
				<path id="&lt;Path&gt;" class="s5" d="m667.1 661.9l15 8.7c0.9 0.6 0.8 1.5-0.2 2.1l-6.6 3.7c-1 0.6-2.5 0.7-3.4 0.2l-15.1-8.7c-0.9-0.6-0.8-1.4 0.2-2l6.6-3.8c1-0.6 2.6-0.7 3.5-0.2z"/>
				<path id="&lt;Path&gt;" class="s5" d="m646.2 649.9l15 8.7c0.9 0.5 0.8 1.4-0.2 2l-6.5 3.8c-1.1 0.6-2.6 0.6-3.5 0.1l-15.1-8.7c-0.9-0.5-0.8-1.4 0.3-2l6.5-3.8c1-0.6 2.6-0.6 3.5-0.1z"/>
				<path id="&lt;Path&gt;" class="s5" d="m678.6 655.3l15.1 8.7c0.9 0.5 0.8 1.4-0.3 2l-6.5 3.8c-1 0.6-2.6 0.6-3.5 0.1l-15.1-8.7c-0.8-0.5-0.7-1.4 0.3-2l6.5-3.8c1.1-0.6 2.6-0.6 3.5-0.1z"/>
			</g>
			<path id="&lt;Path&gt;" class="s6" d="m899.8 630.9l-399.3-230.6c-6.3-3.6-9.5-12.4-7.3-19.7l90.3-293.1c2.2-7.3 9.1-10.3 15.4-6.6l399.3 230.5c6.3 3.6 9.5 12.4 7.3 19.7l-90.3 293.2c-2.2 7.2-9.1 10.2-15.4 6.6z"/>
			<path id="&lt;Path&gt;" class="s7" d="m896 620.6l-387.3-223.8c-6-3.4-9.1-11.9-7-18.9l86.4-280.2c2.1-7 8.7-9.8 14.7-6.3l387.3 223.7c6 3.5 9.1 12 7 18.9l-86.3 280.3c-2.2 6.9-8.8 9.8-14.8 6.3z"/>
			<path id="&lt;Path&gt;" class="s8" d="m896 620.6l-387.3-223.8c-6-3.4-9.1-11.9-7-18.9l86.4-280.2c2.1-7 8.7-9.8 14.7-6.3l387.3 223.7c6 3.5 9.1 12 7 18.9l-86.3 280.3c-2.2 6.9-8.8 9.8-14.8 6.3z"/>
			<path id="&lt;Path&gt;" class="s8" d="m896 620.6l-387.3-223.8c-6-3.4-9.1-11.9-7-18.9l86.4-280.2c2.1-7 8.7-9.8 14.7-6.3l387.3 223.7c6 3.5 9.1 12 7 18.9l-86.3 280.3c-2.2 6.9-8.8 9.8-14.8 6.3z"/>
			<path id="&lt;Path&gt;" class="s9" d="m875.2 535l-262.1-151.4c-4.2-2.4-6.3-8.2-4.9-13l59.3-192.5c1.5-4.7 6-6.7 10.2-4.3l262.1 151.4c4.1 2.4 6.3 8.2 4.8 12.9l-59.3 192.5c-1.4 4.8-6 6.7-10.1 4.4z"/>
			<g id="&lt;Group&gt;">
				<path id="&lt;Path&gt;" class="s10" d="m839.8 539.6l-262.2-151.4c-4.1-2.3-6.2-8.1-4.8-12.9l59.3-192.5c1.5-4.8 6-6.7 10.1-4.3l262.2 151.3c4.1 2.4 6.3 8.2 4.8 13l-59.3 192.5c-1.5 4.7-6 6.7-10.1 4.3z"/>
			</g>
			<g id="&lt;Group&gt;" style="opacity: .5">
				<path id="&lt;Path&gt;" class="s5" d="m839.8 539.6l-262.2-151.4c-4.1-2.3-6.2-8.1-4.8-12.9l59.3-192.5c1.5-4.8 6-6.7 10.1-4.3l262.2 151.3c4.1 2.4 6.3 8.2 4.8 13l-59.3 192.5c-1.5 4.7-6 6.7-10.1 4.3z"/>
			</g>
			<path id="&lt;Path&gt;" class="s4" d="m904.4 329.8l-262.2-151.3c-2.5-1.5-5.3-1.3-7.3 0.2 1.2 0 2.5 0.3 3.7 1l262.2 151.3c4.1 2.4 6.3 8.2 4.8 13l-59.3 192.5c-0.5 1.8-1.5 3.2-2.7 4.1 2.8-0.1 5.3-2 6.3-5.3l59.3-192.5c1.5-4.8-0.7-10.6-4.8-13z"/>
			<path id="&lt;Compound Path&gt;" fill-rule="evenodd" class="s8" d="m509.1 696.8c-3.6 0-7-0.8-9.7-2.3l-105-60.6c-2.8-1.6-4.3-3.9-4.3-6.5 0-3 2.1-5.9 5.8-8l54-31.2c6.6-3.9 16.3-4.2 22.1-0.9l105.1 60.6c2.7 1.7 4.3 4 4.3 6.5 0 3-2.1 5.9-5.8 8l-54.1 31.3c-3.6 2-8.1 3.1-12.4 3.1zm-46.7-108.7c-3.8 0-7.9 0.9-10.9 2.7l-54.1 31.2c-2.7 1.6-4.3 3.5-4.3 5.4 0 1.8 1.5 3.1 2.8 3.8l105 60.7c4.8 2.7 13.5 2.3 19.1-0.9l54.1-31.2c2.7-1.5 4.2-3.5 4.2-5.4 0-1.8-1.5-3.1-2.8-3.8l-105-60.7c-2.1-1.2-5.1-1.8-8.1-1.8z"/>
		</g>
		<g id="&lt;Group&gt;">
			<g id="&lt;Group&gt;">
				<path id="&lt;Path&gt;" class="s4" d="m706.1 279.4l-16.2-9.3c-1.5-0.9-2.3-3-1.8-4.7 0.5-1.7 2.1-2.4 3.6-1.5l16.2 9.4c1.5 0.8 2.3 2.9 1.8 4.6-0.5 1.7-2.1 2.4-3.6 1.5z"/>
				<path id="&lt;Path&gt;" class="s4" d="m744.7 301.7l-23.9-13.8c-1.5-0.8-2.3-2.9-1.8-4.6 0.5-1.7 2.1-2.4 3.6-1.5l23.9 13.8c1.5 0.8 2.3 2.9 1.8 4.6-0.5 1.7-2.1 2.4-3.6 1.5z"/>
				<path id="&lt;Path&gt;" class="s4" d="m673.4 351.6l-16.2-9.4c-1.5-0.8-2.3-2.9-1.8-4.6 0.5-1.7 2.1-2.4 3.6-1.5l16.2 9.3c1.5 0.9 2.4 3 1.8 4.7-0.5 1.7-2.1 2.4-3.6 1.5z"/>
				<path id="&lt;Path&gt;" class="s4" d="m707.8 371.5l-23.9-13.8c-1.5-0.9-2.3-3-1.8-4.7 0.5-1.7 2.2-2.4 3.7-1.5l23.9 13.8c1.5 0.9 2.3 3 1.8 4.7-0.5 1.7-2.2 2.3-3.7 1.5z"/>
				<path id="&lt;Path&gt;" class="s4" d="m657.5 266.6l-10.1-5.9c-1.5-0.8-2.3-2.9-1.8-4.6 0.5-1.7 2.2-2.4 3.7-1.5l10.1 5.8c1.5 0.9 2.3 3 1.8 4.7-0.5 1.7-2.2 2.4-3.7 1.5z"/>
				<path id="&lt;Path&gt;" class="s4" d="m688 299.3l-30.9-17.8c-1.5-0.9-2.3-3-1.8-4.7 0.5-1.7 2.1-2.4 3.6-1.5l30.9 17.9c1.6 0.8 2.4 2.9 1.8 4.6-0.5 1.7-2.1 2.4-3.6 1.5z"/>
				<path id="&lt;Path&gt;" class="s4" d="m659.5 313.2l-10.2-5.8c-1.5-0.9-2.3-3-1.8-4.7 0.6-1.7 2.2-2.4 3.7-1.5l10.1 5.8c1.5 0.9 2.3 3 1.8 4.7-0.5 1.7-2.1 2.4-3.6 1.5z"/>
				<path id="&lt;Path&gt;" class="s4" d="m711.5 404l-27-15.6c-1.5-0.9-2.3-3-1.8-4.7 0.5-1.7 2.1-2.4 3.6-1.5l27.1 15.6c1.5 0.9 2.3 3 1.8 4.7-0.5 1.7-2.1 2.3-3.7 1.5z"/>
				<path id="&lt;Path&gt;" class="s4" d="m648.1 337l-6.5-3.7c-1.5-0.9-2.3-3-1.8-4.7 0.5-1.7 2.2-2.4 3.7-1.5l6.5 3.7c1.5 0.9 2.3 3 1.8 4.7-0.5 1.7-2.2 2.4-3.7 1.5z"/>
				<path id="&lt;Path&gt;" class="s4" d="m642 363.8l-8.1-4.7c-1.5-0.8-2.3-2.9-1.8-4.6 0.5-1.7 2.1-2.4 3.6-1.5l8.1 4.6c1.5 0.9 2.3 3 1.8 4.7-0.5 1.7-2.1 2.4-3.6 1.5z"/>
				<path id="&lt;Path&gt;" class="s4" d="m673.4 381.9l-21.3-12.3c-1.5-0.8-2.3-2.9-1.8-4.6 0.5-1.7 2.1-2.4 3.6-1.5l21.3 12.3c1.5 0.8 2.3 2.9 1.8 4.6-0.5 1.7-2.1 2.4-3.6 1.5z"/>
				<path id="&lt;Path&gt;" class="s4" d="m645.3 380.9l-15.3-8.8c-1.5-0.9-2.3-3-1.8-4.7 0.5-1.7 2.2-2.4 3.7-1.5l15.3 8.8c1.5 0.9 2.3 3 1.8 4.7-0.5 1.7-2.2 2.4-3.7 1.5z"/>
				<path id="&lt;Path&gt;" class="s4" d="m734.7 417.4l-9.8-5.6c-1.5-0.9-2.3-3-1.8-4.7 0.5-1.7 2.2-2.4 3.7-1.5l9.8 5.7c1.5 0.8 2.3 2.9 1.8 4.6-0.5 1.7-2.1 2.4-3.7 1.5z"/>
				<path id="&lt;Path&gt;" class="s4" d="m697.1 335l-27-15.6c-1.5-0.9-2.3-3-1.8-4.7 0.5-1.7 2.1-2.4 3.6-1.5l27.1 15.6c1.5 0.9 2.3 2.9 1.8 4.6-0.5 1.8-2.2 2.4-3.7 1.6z"/>
			</g>
			<path id="&lt;Path&gt;" class="s11" d="m700.3 321.6l-47.1-27.2c-1.5-0.8-2.3-2.9-1.8-4.6 0.5-1.7 2.1-2.4 3.7-1.5l47.1 27.2c1.5 0.8 2.3 2.9 1.8 4.6-0.5 1.7-2.2 2.4-3.7 1.5z"/>
			<path id="&lt;Path&gt;" class="s11" d="m672.5 335.9l-27-15.6c-1.5-0.9-2.3-2.9-1.8-4.6 0.5-1.7 2.1-2.4 3.6-1.6l27.1 15.7c1.5 0.8 2.3 2.9 1.8 4.6-0.5 1.7-2.2 2.4-3.7 1.5z"/>
			<path id="&lt;Path&gt;" class="s11" d="m717.6 346.8l-9.8-5.7c-1.5-0.8-2.3-2.9-1.8-4.6 0.5-1.7 2.2-2.4 3.7-1.5l9.8 5.6c1.5 0.9 2.3 3 1.8 4.7-0.5 1.7-2.2 2.4-3.7 1.5z"/>
			<path id="&lt;Path&gt;" class="s11" d="m817.6 343.8l-58.2-33.6c-1.5-0.8-2.3-2.9-1.8-4.6 0.5-1.7 2.1-2.4 3.6-1.5l58.2 33.5c1.5 0.9 2.3 3 1.8 4.7-0.5 1.7-2.1 2.4-3.6 1.5z"/>
			<path id="&lt;Path&gt;" class="s12" d="m670.3 365l-32.5-18.8c-1.5-0.9-2.3-3-1.8-4.7 0.5-1.7 2.1-2.3 3.6-1.5l32.5 18.8c1.5 0.9 2.3 2.9 1.8 4.7-0.5 1.7-2.1 2.3-3.6 1.5z"/>
			<path id="&lt;Path&gt;" class="s12" d="m675.2 261.6l-23.9-13.8c-1.5-0.9-2.3-3-1.8-4.7 0.5-1.7 2.1-2.3 3.6-1.5l23.9 13.8c1.5 0.9 2.3 3 1.8 4.7-0.5 1.7-2.1 2.4-3.6 1.5z"/>
			<path id="&lt;Path&gt;" class="s11" d="m640.3 393.2l-27.6-16c-1.5-0.8-2.3-2.9-1.8-4.6 0.5-1.7 2.1-2.4 3.6-1.6l27.7 16c1.5 0.9 2.3 3 1.8 4.7-0.5 1.7-2.2 2.4-3.7 1.5z"/>
		</g>
		<g id="&lt;Group&gt;">
			<path id="&lt;Path&gt;" class="s4" d="m824.1 313.9l-11.8-6.8c-1.1-0.7-1.7-2.2-1.3-3.4 0.3-1.3 1.5-1.8 2.6-1.2l11.9 6.9c1.1 0.6 1.7 2.1 1.3 3.4-0.4 1.2-1.6 1.7-2.7 1.1z"/>
			<path id="&lt;Path&gt;" class="s4" d="m846.7 326.9l-11.8-6.8c-1.1-0.6-1.7-2.2-1.3-3.4 0.3-1.2 1.5-1.7 2.6-1.1l11.9 6.8c1.1 0.7 1.7 2.2 1.3 3.4-0.4 1.3-1.6 1.8-2.7 1.1z"/>
			<path id="&lt;Path&gt;" class="s4" d="m869.3 340l-11.8-6.8c-1.1-0.7-1.7-2.2-1.3-3.5 0.3-1.2 1.5-1.7 2.6-1.1l11.9 6.9c1.1 0.6 1.7 2.1 1.3 3.4-0.4 1.2-1.6 1.7-2.7 1.1z"/>
			<path id="&lt;Path&gt;" class="s12" d="m880.4 346.4l-0.3-0.2c-1.1-0.6-1.7-2.2-1.4-3.4 0.4-1.3 1.6-1.8 2.7-1.1l0.4 0.2c1.1 0.6 1.7 2.2 1.3 3.4-0.4 1.3-1.6 1.7-2.7 1.1z"/>
		</g>
		<g id="&lt;Group&gt;">
			<g id="&lt;Group&gt;">
			</g>
			<g id="&lt;Group&gt;">
			</g>
		</g>
	</g>
</svg>